<mxfile host="app.diagrams.net" modified="2024-05-15T16:37:00.502Z" agent="Mozilla/5.0 (Windows NT 10.0; Win64; x64) AppleWebKit/537.36 (KHTML, like Gecko) Chrome/124.0.0.0 Safari/537.36" etag="BMARHCRwAvAHNXj4-JcL" version="24.4.0" type="google" pages="3">
  <diagram name="users" id="nvy2_4R6WRpT2O7mo792">
    <mxGraphModel dx="2345" dy="1834" grid="1" gridSize="10" guides="1" tooltips="1" connect="1" arrows="1" fold="1" page="1" pageScale="1" pageWidth="827" pageHeight="1169" math="0" shadow="0">
      <root>
        <mxCell id="0" />
        <mxCell id="1" parent="0" />
        <mxCell id="jQyEQ9ztN0QTBvn56YA3-1" style="edgeStyle=none;curved=1;rounded=0;orthogonalLoop=1;jettySize=auto;html=1;exitX=1;exitY=0.5;exitDx=0;exitDy=0;entryX=0;entryY=0.5;entryDx=0;entryDy=0;fontSize=12;startSize=8;endSize=8;" edge="1" parent="1" source="jQyEQ9ztN0QTBvn56YA3-3" target="jQyEQ9ztN0QTBvn56YA3-15">
          <mxGeometry relative="1" as="geometry" />
        </mxCell>
        <mxCell id="jQyEQ9ztN0QTBvn56YA3-2" style="edgeStyle=none;curved=1;rounded=0;orthogonalLoop=1;jettySize=auto;html=1;fontSize=12;startSize=8;endSize=8;" edge="1" parent="1" source="jQyEQ9ztN0QTBvn56YA3-3" target="jQyEQ9ztN0QTBvn56YA3-17">
          <mxGeometry relative="1" as="geometry" />
        </mxCell>
        <mxCell id="jQyEQ9ztN0QTBvn56YA3-3" value="&lt;font style=&quot;font-size: 16px;&quot;&gt;user 1&lt;/font&gt;" style="ellipse;whiteSpace=wrap;html=1;aspect=fixed;" vertex="1" parent="1">
          <mxGeometry x="-14" y="-161" width="80" height="80" as="geometry" />
        </mxCell>
        <mxCell id="jQyEQ9ztN0QTBvn56YA3-4" style="edgeStyle=none;curved=1;rounded=0;orthogonalLoop=1;jettySize=auto;html=1;fontSize=12;startSize=8;endSize=8;" edge="1" parent="1" source="jQyEQ9ztN0QTBvn56YA3-5" target="jQyEQ9ztN0QTBvn56YA3-11">
          <mxGeometry relative="1" as="geometry" />
        </mxCell>
        <mxCell id="jQyEQ9ztN0QTBvn56YA3-5" value="&lt;font style=&quot;font-size: 16px;&quot;&gt;user 3&lt;/font&gt;" style="ellipse;whiteSpace=wrap;html=1;aspect=fixed;" vertex="1" parent="1">
          <mxGeometry x="140" y="150" width="80" height="80" as="geometry" />
        </mxCell>
        <mxCell id="jQyEQ9ztN0QTBvn56YA3-6" style="edgeStyle=none;curved=1;rounded=0;orthogonalLoop=1;jettySize=auto;html=1;fontSize=12;startSize=8;endSize=8;" edge="1" parent="1" source="jQyEQ9ztN0QTBvn56YA3-7" target="jQyEQ9ztN0QTBvn56YA3-9">
          <mxGeometry relative="1" as="geometry" />
        </mxCell>
        <mxCell id="jQyEQ9ztN0QTBvn56YA3-7" value="&lt;font style=&quot;font-size: 16px;&quot;&gt;user 2&lt;/font&gt;" style="ellipse;whiteSpace=wrap;html=1;aspect=fixed;" vertex="1" parent="1">
          <mxGeometry x="400" y="2" width="80" height="80" as="geometry" />
        </mxCell>
        <mxCell id="jQyEQ9ztN0QTBvn56YA3-8" style="edgeStyle=none;curved=1;rounded=0;orthogonalLoop=1;jettySize=auto;html=1;exitX=0;exitY=0;exitDx=0;exitDy=0;fontSize=12;startSize=8;endSize=8;" edge="1" parent="1" source="jQyEQ9ztN0QTBvn56YA3-9" target="jQyEQ9ztN0QTBvn56YA3-11">
          <mxGeometry relative="1" as="geometry" />
        </mxCell>
        <mxCell id="jQyEQ9ztN0QTBvn56YA3-9" value="&lt;font style=&quot;font-size: 16px;&quot;&gt;user 4&lt;/font&gt;" style="ellipse;whiteSpace=wrap;html=1;aspect=fixed;" vertex="1" parent="1">
          <mxGeometry x="233" y="9" width="80" height="80" as="geometry" />
        </mxCell>
        <mxCell id="jQyEQ9ztN0QTBvn56YA3-10" style="edgeStyle=none;curved=1;rounded=0;orthogonalLoop=1;jettySize=auto;html=1;fontSize=12;startSize=8;endSize=8;" edge="1" parent="1" source="jQyEQ9ztN0QTBvn56YA3-11" target="jQyEQ9ztN0QTBvn56YA3-3">
          <mxGeometry relative="1" as="geometry" />
        </mxCell>
        <mxCell id="jQyEQ9ztN0QTBvn56YA3-11" value="&lt;font style=&quot;font-size: 16px;&quot;&gt;user 5&lt;/font&gt;" style="ellipse;whiteSpace=wrap;html=1;aspect=fixed;" vertex="1" parent="1">
          <mxGeometry y="30" width="80" height="80" as="geometry" />
        </mxCell>
        <mxCell id="jQyEQ9ztN0QTBvn56YA3-12" style="edgeStyle=none;curved=1;rounded=0;orthogonalLoop=1;jettySize=auto;html=1;exitX=1;exitY=1;exitDx=0;exitDy=0;fontSize=12;startSize=8;endSize=8;" edge="1" parent="1" source="jQyEQ9ztN0QTBvn56YA3-13" target="jQyEQ9ztN0QTBvn56YA3-19">
          <mxGeometry relative="1" as="geometry" />
        </mxCell>
        <mxCell id="jQyEQ9ztN0QTBvn56YA3-13" value="&lt;font style=&quot;font-size: 16px;&quot;&gt;user 8&lt;/font&gt;" style="ellipse;whiteSpace=wrap;html=1;aspect=fixed;" vertex="1" parent="1">
          <mxGeometry x="374" y="-360" width="80" height="80" as="geometry" />
        </mxCell>
        <mxCell id="jQyEQ9ztN0QTBvn56YA3-14" style="edgeStyle=none;curved=1;rounded=0;orthogonalLoop=1;jettySize=auto;html=1;exitX=0.5;exitY=1;exitDx=0;exitDy=0;entryX=0.5;entryY=0;entryDx=0;entryDy=0;fontSize=12;startSize=8;endSize=8;" edge="1" parent="1" source="jQyEQ9ztN0QTBvn56YA3-15" target="jQyEQ9ztN0QTBvn56YA3-9">
          <mxGeometry relative="1" as="geometry" />
        </mxCell>
        <mxCell id="jQyEQ9ztN0QTBvn56YA3-15" value="&lt;font style=&quot;font-size: 16px;&quot;&gt;user 6&lt;/font&gt;" style="ellipse;whiteSpace=wrap;html=1;aspect=fixed;" vertex="1" parent="1">
          <mxGeometry x="200" y="-130" width="80" height="80" as="geometry" />
        </mxCell>
        <mxCell id="jQyEQ9ztN0QTBvn56YA3-16" style="edgeStyle=none;curved=1;rounded=0;orthogonalLoop=1;jettySize=auto;html=1;exitX=1;exitY=0.5;exitDx=0;exitDy=0;entryX=0;entryY=0.5;entryDx=0;entryDy=0;fontSize=12;startSize=8;endSize=8;" edge="1" parent="1" source="jQyEQ9ztN0QTBvn56YA3-17" target="jQyEQ9ztN0QTBvn56YA3-13">
          <mxGeometry relative="1" as="geometry" />
        </mxCell>
        <mxCell id="jQyEQ9ztN0QTBvn56YA3-17" value="&lt;font style=&quot;font-size: 16px;&quot;&gt;user 9&lt;/font&gt;" style="ellipse;whiteSpace=wrap;html=1;aspect=fixed;" vertex="1" parent="1">
          <mxGeometry x="42" y="-371" width="80" height="80" as="geometry" />
        </mxCell>
        <mxCell id="jQyEQ9ztN0QTBvn56YA3-18" style="edgeStyle=none;curved=1;rounded=0;orthogonalLoop=1;jettySize=auto;html=1;exitX=0.5;exitY=1;exitDx=0;exitDy=0;entryX=1.012;entryY=0.286;entryDx=0;entryDy=0;fontSize=12;startSize=8;endSize=8;entryPerimeter=0;" edge="1" parent="1" source="jQyEQ9ztN0QTBvn56YA3-19" target="jQyEQ9ztN0QTBvn56YA3-7">
          <mxGeometry relative="1" as="geometry" />
        </mxCell>
        <mxCell id="jQyEQ9ztN0QTBvn56YA3-19" value="&lt;font style=&quot;font-size: 16px;&quot;&gt;user 7&lt;/font&gt;" style="ellipse;whiteSpace=wrap;html=1;aspect=fixed;" vertex="1" parent="1">
          <mxGeometry x="492" y="-161" width="80" height="80" as="geometry" />
        </mxCell>
        <mxCell id="jQyEQ9ztN0QTBvn56YA3-20" style="edgeStyle=none;curved=1;rounded=0;orthogonalLoop=1;jettySize=auto;html=1;exitX=0;exitY=0;exitDx=0;exitDy=0;entryX=1;entryY=1;entryDx=0;entryDy=0;fontSize=12;startSize=8;endSize=8;" edge="1" parent="1" source="jQyEQ9ztN0QTBvn56YA3-21" target="jQyEQ9ztN0QTBvn56YA3-17">
          <mxGeometry relative="1" as="geometry" />
        </mxCell>
        <mxCell id="jQyEQ9ztN0QTBvn56YA3-21" value="&lt;font style=&quot;font-size: 16px;&quot;&gt;user 10&lt;/font&gt;" style="ellipse;whiteSpace=wrap;html=1;aspect=fixed;" vertex="1" parent="1">
          <mxGeometry x="190" y="-280" width="80" height="80" as="geometry" />
        </mxCell>
      </root>
    </mxGraphModel>
  </diagram>
  <diagram id="RfhJ8L5-43K4BzqF2kka" name="songs">
    <mxGraphModel dx="2670" dy="1976" grid="1" gridSize="10" guides="1" tooltips="1" connect="1" arrows="1" fold="1" page="1" pageScale="1" pageWidth="827" pageHeight="1169" math="0" shadow="0">
      <root>
        <mxCell id="0" />
        <mxCell id="1" parent="0" />
        <mxCell id="rn1QJT0xuimR0rnbN_lU-1" style="edgeStyle=none;curved=1;rounded=0;orthogonalLoop=1;jettySize=auto;html=1;exitX=0.5;exitY=1;exitDx=0;exitDy=0;fontSize=12;startSize=8;endSize=8;" edge="1" parent="1" source="rn1QJT0xuimR0rnbN_lU-3" target="rn1QJT0xuimR0rnbN_lU-25">
          <mxGeometry relative="1" as="geometry" />
        </mxCell>
        <mxCell id="rn1QJT0xuimR0rnbN_lU-2" style="edgeStyle=none;curved=1;rounded=0;orthogonalLoop=1;jettySize=auto;html=1;exitX=0.5;exitY=1;exitDx=0;exitDy=0;entryX=0.5;entryY=0;entryDx=0;entryDy=0;fontSize=12;startSize=8;endSize=8;" edge="1" parent="1" source="rn1QJT0xuimR0rnbN_lU-3" target="rn1QJT0xuimR0rnbN_lU-22">
          <mxGeometry relative="1" as="geometry" />
        </mxCell>
        <mxCell id="rn1QJT0xuimR0rnbN_lU-3" value="&lt;span style=&quot;font-size: 16px;&quot;&gt;user 1&lt;/span&gt;" style="ellipse;whiteSpace=wrap;html=1;aspect=fixed;" vertex="1" parent="1">
          <mxGeometry x="-235" y="-6" width="80" height="80" as="geometry" />
        </mxCell>
        <mxCell id="rn1QJT0xuimR0rnbN_lU-4" style="edgeStyle=none;curved=1;rounded=0;orthogonalLoop=1;jettySize=auto;html=1;exitX=0.5;exitY=1;exitDx=0;exitDy=0;entryX=0.5;entryY=0;entryDx=0;entryDy=0;fontSize=12;startSize=8;endSize=8;" edge="1" parent="1" source="rn1QJT0xuimR0rnbN_lU-5" target="rn1QJT0xuimR0rnbN_lU-30">
          <mxGeometry relative="1" as="geometry" />
        </mxCell>
        <mxCell id="rn1QJT0xuimR0rnbN_lU-5" value="&lt;span style=&quot;font-size: 16px;&quot;&gt;user 3&lt;/span&gt;" style="ellipse;whiteSpace=wrap;html=1;aspect=fixed;" vertex="1" parent="1">
          <mxGeometry x="90" y="260" width="80" height="80" as="geometry" />
        </mxCell>
        <mxCell id="rn1QJT0xuimR0rnbN_lU-6" style="edgeStyle=none;curved=1;rounded=0;orthogonalLoop=1;jettySize=auto;html=1;exitX=0.5;exitY=1;exitDx=0;exitDy=0;entryX=0.5;entryY=0;entryDx=0;entryDy=0;fontSize=12;startSize=8;endSize=8;" edge="1" parent="1" source="rn1QJT0xuimR0rnbN_lU-7" target="rn1QJT0xuimR0rnbN_lU-31">
          <mxGeometry relative="1" as="geometry" />
        </mxCell>
        <mxCell id="rn1QJT0xuimR0rnbN_lU-7" value="&lt;span style=&quot;font-size: 16px;&quot;&gt;user 2&lt;/span&gt;" style="ellipse;whiteSpace=wrap;html=1;aspect=fixed;" vertex="1" parent="1">
          <mxGeometry x="114" y="-21" width="80" height="80" as="geometry" />
        </mxCell>
        <mxCell id="rn1QJT0xuimR0rnbN_lU-8" style="edgeStyle=none;curved=1;rounded=0;orthogonalLoop=1;jettySize=auto;html=1;exitX=0.5;exitY=1;exitDx=0;exitDy=0;entryX=0.5;entryY=0;entryDx=0;entryDy=0;fontSize=12;startSize=8;endSize=8;" edge="1" parent="1" source="rn1QJT0xuimR0rnbN_lU-9" target="rn1QJT0xuimR0rnbN_lU-26">
          <mxGeometry relative="1" as="geometry" />
        </mxCell>
        <mxCell id="rn1QJT0xuimR0rnbN_lU-9" value="&lt;span style=&quot;font-size: 16px;&quot;&gt;user 4&lt;/span&gt;" style="ellipse;whiteSpace=wrap;html=1;aspect=fixed;" vertex="1" parent="1">
          <mxGeometry x="-174" y="270" width="80" height="80" as="geometry" />
        </mxCell>
        <mxCell id="rn1QJT0xuimR0rnbN_lU-10" style="edgeStyle=none;curved=1;rounded=0;orthogonalLoop=1;jettySize=auto;html=1;exitX=0.5;exitY=1;exitDx=0;exitDy=0;entryX=0.5;entryY=0;entryDx=0;entryDy=0;fontSize=12;startSize=8;endSize=8;" edge="1" parent="1" source="rn1QJT0xuimR0rnbN_lU-11" target="rn1QJT0xuimR0rnbN_lU-23">
          <mxGeometry relative="1" as="geometry" />
        </mxCell>
        <mxCell id="rn1QJT0xuimR0rnbN_lU-11" value="&lt;span style=&quot;font-size: 16px;&quot;&gt;user 5&lt;/span&gt;" style="ellipse;whiteSpace=wrap;html=1;aspect=fixed;" vertex="1" parent="1">
          <mxGeometry x="-67" y="-24" width="80" height="80" as="geometry" />
        </mxCell>
        <mxCell id="rn1QJT0xuimR0rnbN_lU-12" style="edgeStyle=none;curved=1;rounded=0;orthogonalLoop=1;jettySize=auto;html=1;exitX=0.5;exitY=1;exitDx=0;exitDy=0;fontSize=12;startSize=8;endSize=8;" edge="1" parent="1" source="rn1QJT0xuimR0rnbN_lU-13" target="rn1QJT0xuimR0rnbN_lU-24">
          <mxGeometry relative="1" as="geometry" />
        </mxCell>
        <mxCell id="rn1QJT0xuimR0rnbN_lU-13" value="&lt;span style=&quot;font-size: 16px;&quot;&gt;user 8&lt;/span&gt;" style="ellipse;whiteSpace=wrap;html=1;aspect=fixed;" vertex="1" parent="1">
          <mxGeometry x="26" y="-27" width="80" height="80" as="geometry" />
        </mxCell>
        <mxCell id="rn1QJT0xuimR0rnbN_lU-14" style="edgeStyle=none;curved=1;rounded=0;orthogonalLoop=1;jettySize=auto;html=1;exitX=0.5;exitY=1;exitDx=0;exitDy=0;fontSize=12;startSize=8;endSize=8;" edge="1" parent="1" source="rn1QJT0xuimR0rnbN_lU-15" target="rn1QJT0xuimR0rnbN_lU-29">
          <mxGeometry relative="1" as="geometry" />
        </mxCell>
        <mxCell id="rn1QJT0xuimR0rnbN_lU-15" value="&lt;span style=&quot;font-size: 16px;&quot;&gt;user 6&lt;/span&gt;" style="ellipse;whiteSpace=wrap;html=1;aspect=fixed;" vertex="1" parent="1">
          <mxGeometry x="202" y="264" width="80" height="80" as="geometry" />
        </mxCell>
        <mxCell id="rn1QJT0xuimR0rnbN_lU-16" style="edgeStyle=none;curved=1;rounded=0;orthogonalLoop=1;jettySize=auto;html=1;exitX=0.5;exitY=1;exitDx=0;exitDy=0;entryX=0.5;entryY=0;entryDx=0;entryDy=0;fontSize=12;startSize=8;endSize=8;" edge="1" parent="1" source="rn1QJT0xuimR0rnbN_lU-17" target="rn1QJT0xuimR0rnbN_lU-27">
          <mxGeometry relative="1" as="geometry" />
        </mxCell>
        <mxCell id="rn1QJT0xuimR0rnbN_lU-17" value="&lt;span style=&quot;font-size: 16px;&quot;&gt;user 9&lt;/span&gt;" style="ellipse;whiteSpace=wrap;html=1;aspect=fixed;" vertex="1" parent="1">
          <mxGeometry x="-285" y="270" width="80" height="80" as="geometry" />
        </mxCell>
        <mxCell id="rn1QJT0xuimR0rnbN_lU-18" style="edgeStyle=none;curved=1;rounded=0;orthogonalLoop=1;jettySize=auto;html=1;exitX=0.5;exitY=1;exitDx=0;exitDy=0;entryX=0.5;entryY=0;entryDx=0;entryDy=0;fontSize=12;startSize=8;endSize=8;" edge="1" parent="1" source="rn1QJT0xuimR0rnbN_lU-19" target="rn1QJT0xuimR0rnbN_lU-31">
          <mxGeometry relative="1" as="geometry" />
        </mxCell>
        <mxCell id="rn1QJT0xuimR0rnbN_lU-19" value="&lt;span style=&quot;font-size: 16px;&quot;&gt;user 7&lt;/span&gt;" style="ellipse;whiteSpace=wrap;html=1;aspect=fixed;" vertex="1" parent="1">
          <mxGeometry x="215" y="-21" width="80" height="80" as="geometry" />
        </mxCell>
        <mxCell id="rn1QJT0xuimR0rnbN_lU-20" style="edgeStyle=none;curved=1;rounded=0;orthogonalLoop=1;jettySize=auto;html=1;exitX=0.5;exitY=1;exitDx=0;exitDy=0;entryX=0.5;entryY=0;entryDx=0;entryDy=0;fontSize=12;startSize=8;endSize=8;" edge="1" parent="1" source="rn1QJT0xuimR0rnbN_lU-21" target="rn1QJT0xuimR0rnbN_lU-28">
          <mxGeometry relative="1" as="geometry" />
        </mxCell>
        <mxCell id="rn1QJT0xuimR0rnbN_lU-21" value="&lt;font style=&quot;font-size: 16px;&quot;&gt;user 10&lt;/font&gt;" style="ellipse;whiteSpace=wrap;html=1;aspect=fixed;" vertex="1" parent="1">
          <mxGeometry x="-41" y="270" width="80" height="80" as="geometry" />
        </mxCell>
        <mxCell id="rn1QJT0xuimR0rnbN_lU-22" value="&lt;font style=&quot;font-size: 16px;&quot;&gt;song 9&lt;/font&gt;" style="whiteSpace=wrap;html=1;aspect=fixed;" vertex="1" parent="1">
          <mxGeometry x="-287" y="125" width="80" height="80" as="geometry" />
        </mxCell>
        <mxCell id="rn1QJT0xuimR0rnbN_lU-23" value="&lt;font style=&quot;font-size: 16px;&quot;&gt;song 1&lt;/font&gt;" style="whiteSpace=wrap;html=1;aspect=fixed;" vertex="1" parent="1">
          <mxGeometry x="-67" y="125" width="80" height="80" as="geometry" />
        </mxCell>
        <mxCell id="rn1QJT0xuimR0rnbN_lU-24" value="&lt;font style=&quot;font-size: 16px;&quot;&gt;song 7&lt;/font&gt;" style="whiteSpace=wrap;html=1;aspect=fixed;" vertex="1" parent="1">
          <mxGeometry x="39" y="129" width="80" height="80" as="geometry" />
        </mxCell>
        <mxCell id="rn1QJT0xuimR0rnbN_lU-25" value="&lt;font style=&quot;font-size: 16px;&quot;&gt;song 6&lt;/font&gt;" style="whiteSpace=wrap;html=1;aspect=fixed;" vertex="1" parent="1">
          <mxGeometry x="-177" y="125" width="80" height="80" as="geometry" />
        </mxCell>
        <mxCell id="rn1QJT0xuimR0rnbN_lU-26" value="&lt;font style=&quot;font-size: 16px;&quot;&gt;song 3&lt;/font&gt;" style="whiteSpace=wrap;html=1;aspect=fixed;" vertex="1" parent="1">
          <mxGeometry x="-170" y="403" width="80" height="80" as="geometry" />
        </mxCell>
        <mxCell id="rn1QJT0xuimR0rnbN_lU-27" value="&lt;font style=&quot;font-size: 16px;&quot;&gt;song 8&lt;/font&gt;" style="whiteSpace=wrap;html=1;aspect=fixed;" vertex="1" parent="1">
          <mxGeometry x="-287" y="403" width="80" height="80" as="geometry" />
        </mxCell>
        <mxCell id="rn1QJT0xuimR0rnbN_lU-28" value="&lt;font style=&quot;font-size: 16px;&quot;&gt;song 10&lt;/font&gt;" style="whiteSpace=wrap;html=1;aspect=fixed;" vertex="1" parent="1">
          <mxGeometry x="-41" y="403" width="80" height="80" as="geometry" />
        </mxCell>
        <mxCell id="rn1QJT0xuimR0rnbN_lU-29" value="&lt;font style=&quot;font-size: 16px;&quot;&gt;song 3&lt;/font&gt;" style="whiteSpace=wrap;html=1;aspect=fixed;" vertex="1" parent="1">
          <mxGeometry x="207" y="412" width="80" height="80" as="geometry" />
        </mxCell>
        <mxCell id="rn1QJT0xuimR0rnbN_lU-30" value="&lt;font style=&quot;font-size: 16px;&quot;&gt;song 5&lt;/font&gt;" style="whiteSpace=wrap;html=1;aspect=fixed;" vertex="1" parent="1">
          <mxGeometry x="96" y="416" width="80" height="80" as="geometry" />
        </mxCell>
        <mxCell id="rn1QJT0xuimR0rnbN_lU-31" value="&lt;font style=&quot;font-size: 16px;&quot;&gt;song 2&lt;/font&gt;" style="whiteSpace=wrap;html=1;aspect=fixed;" vertex="1" parent="1">
          <mxGeometry x="160" y="129" width="80" height="80" as="geometry" />
        </mxCell>
      </root>
    </mxGraphModel>
  </diagram>
  <diagram id="cKZB0oZKLf57Fje09um2" name="authors">
    <mxGraphModel dx="1985" dy="1256" grid="1" gridSize="10" guides="1" tooltips="1" connect="1" arrows="1" fold="1" page="1" pageScale="1" pageWidth="827" pageHeight="1169" math="0" shadow="0">
      <root>
        <mxCell id="0" />
        <mxCell id="1" parent="0" />
        <mxCell id="EWGCf1BaDTlb1IVFwAW_-1" style="edgeStyle=none;curved=1;rounded=0;orthogonalLoop=1;jettySize=auto;html=1;exitX=0.5;exitY=1;exitDx=0;exitDy=0;fontSize=12;startSize=8;endSize=8;" edge="1" parent="1" source="EWGCf1BaDTlb1IVFwAW_-3" target="EWGCf1BaDTlb1IVFwAW_-25">
          <mxGeometry relative="1" as="geometry" />
        </mxCell>
        <mxCell id="EWGCf1BaDTlb1IVFwAW_-2" style="edgeStyle=none;curved=1;rounded=0;orthogonalLoop=1;jettySize=auto;html=1;exitX=0.5;exitY=1;exitDx=0;exitDy=0;entryX=0.5;entryY=0;entryDx=0;entryDy=0;fontSize=12;startSize=8;endSize=8;" edge="1" parent="1" source="EWGCf1BaDTlb1IVFwAW_-3" target="EWGCf1BaDTlb1IVFwAW_-22">
          <mxGeometry relative="1" as="geometry" />
        </mxCell>
        <mxCell id="EWGCf1BaDTlb1IVFwAW_-3" value="&lt;span style=&quot;font-size: 16px;&quot;&gt;author 1&lt;/span&gt;" style="ellipse;whiteSpace=wrap;html=1;aspect=fixed;" vertex="1" parent="1">
          <mxGeometry x="-362" y="30" width="80" height="80" as="geometry" />
        </mxCell>
        <mxCell id="EWGCf1BaDTlb1IVFwAW_-4" style="edgeStyle=none;curved=1;rounded=0;orthogonalLoop=1;jettySize=auto;html=1;exitX=0.5;exitY=1;exitDx=0;exitDy=0;entryX=0.5;entryY=0;entryDx=0;entryDy=0;fontSize=12;startSize=8;endSize=8;" edge="1" parent="1" source="EWGCf1BaDTlb1IVFwAW_-5" target="EWGCf1BaDTlb1IVFwAW_-30">
          <mxGeometry relative="1" as="geometry" />
        </mxCell>
        <mxCell id="EWGCf1BaDTlb1IVFwAW_-5" value="&lt;span style=&quot;font-size: 16px;&quot;&gt;author 3&lt;/span&gt;" style="ellipse;whiteSpace=wrap;html=1;aspect=fixed;" vertex="1" parent="1">
          <mxGeometry x="-365" y="262" width="80" height="80" as="geometry" />
        </mxCell>
        <mxCell id="EWGCf1BaDTlb1IVFwAW_-6" style="edgeStyle=none;curved=1;rounded=0;orthogonalLoop=1;jettySize=auto;html=1;exitX=0.5;exitY=1;exitDx=0;exitDy=0;entryX=0.5;entryY=0;entryDx=0;entryDy=0;fontSize=12;startSize=8;endSize=8;" edge="1" parent="1" source="EWGCf1BaDTlb1IVFwAW_-7" target="EWGCf1BaDTlb1IVFwAW_-31">
          <mxGeometry relative="1" as="geometry" />
        </mxCell>
        <mxCell id="EWGCf1BaDTlb1IVFwAW_-7" value="&lt;span style=&quot;font-size: 16px;&quot;&gt;author 2&lt;/span&gt;" style="ellipse;whiteSpace=wrap;html=1;aspect=fixed;" vertex="1" parent="1">
          <mxGeometry x="-568" y="268" width="80" height="80" as="geometry" />
        </mxCell>
        <mxCell id="EWGCf1BaDTlb1IVFwAW_-8" style="edgeStyle=none;curved=1;rounded=0;orthogonalLoop=1;jettySize=auto;html=1;exitX=0.5;exitY=1;exitDx=0;exitDy=0;entryX=0.5;entryY=0;entryDx=0;entryDy=0;fontSize=12;startSize=8;endSize=8;" edge="1" parent="1" source="EWGCf1BaDTlb1IVFwAW_-9" target="EWGCf1BaDTlb1IVFwAW_-26">
          <mxGeometry relative="1" as="geometry" />
        </mxCell>
        <mxCell id="EWGCf1BaDTlb1IVFwAW_-9" value="&lt;span style=&quot;font-size: 16px;&quot;&gt;author 4&lt;/span&gt;" style="ellipse;whiteSpace=wrap;html=1;aspect=fixed;" vertex="1" parent="1">
          <mxGeometry x="-520" y="28" width="80" height="80" as="geometry" />
        </mxCell>
        <mxCell id="EWGCf1BaDTlb1IVFwAW_-10" style="edgeStyle=none;curved=1;rounded=0;orthogonalLoop=1;jettySize=auto;html=1;exitX=0.5;exitY=1;exitDx=0;exitDy=0;entryX=0.5;entryY=0;entryDx=0;entryDy=0;fontSize=12;startSize=8;endSize=8;" edge="1" parent="1" source="EWGCf1BaDTlb1IVFwAW_-11" target="EWGCf1BaDTlb1IVFwAW_-23">
          <mxGeometry relative="1" as="geometry" />
        </mxCell>
        <mxCell id="EWGCf1BaDTlb1IVFwAW_-11" value="&lt;span style=&quot;font-size: 16px;&quot;&gt;author 5&lt;/span&gt;" style="ellipse;whiteSpace=wrap;html=1;aspect=fixed;" vertex="1" parent="1">
          <mxGeometry x="-751" y="260" width="80" height="80" as="geometry" />
        </mxCell>
        <mxCell id="EWGCf1BaDTlb1IVFwAW_-12" style="edgeStyle=none;curved=1;rounded=0;orthogonalLoop=1;jettySize=auto;html=1;exitX=0.5;exitY=1;exitDx=0;exitDy=0;fontSize=12;startSize=8;endSize=8;" edge="1" parent="1" source="EWGCf1BaDTlb1IVFwAW_-13" target="EWGCf1BaDTlb1IVFwAW_-24">
          <mxGeometry relative="1" as="geometry" />
        </mxCell>
        <mxCell id="EWGCf1BaDTlb1IVFwAW_-13" value="&lt;span style=&quot;font-size: 16px;&quot;&gt;author 8&lt;/span&gt;" style="ellipse;whiteSpace=wrap;html=1;aspect=fixed;" vertex="1" parent="1">
          <mxGeometry x="-656" y="262" width="80" height="80" as="geometry" />
        </mxCell>
        <mxCell id="EWGCf1BaDTlb1IVFwAW_-14" style="edgeStyle=none;curved=1;rounded=0;orthogonalLoop=1;jettySize=auto;html=1;exitX=0.5;exitY=1;exitDx=0;exitDy=0;fontSize=12;startSize=8;endSize=8;" edge="1" parent="1" source="EWGCf1BaDTlb1IVFwAW_-15" target="EWGCf1BaDTlb1IVFwAW_-29">
          <mxGeometry relative="1" as="geometry" />
        </mxCell>
        <mxCell id="EWGCf1BaDTlb1IVFwAW_-15" value="&lt;span style=&quot;font-size: 16px;&quot;&gt;author 6&lt;/span&gt;" style="ellipse;whiteSpace=wrap;html=1;aspect=fixed;" vertex="1" parent="1">
          <mxGeometry x="-253" y="266" width="80" height="80" as="geometry" />
        </mxCell>
        <mxCell id="EWGCf1BaDTlb1IVFwAW_-16" style="edgeStyle=none;curved=1;rounded=0;orthogonalLoop=1;jettySize=auto;html=1;exitX=0.5;exitY=1;exitDx=0;exitDy=0;entryX=0.5;entryY=0;entryDx=0;entryDy=0;fontSize=12;startSize=8;endSize=8;" edge="1" parent="1" source="EWGCf1BaDTlb1IVFwAW_-17" target="EWGCf1BaDTlb1IVFwAW_-27">
          <mxGeometry relative="1" as="geometry" />
        </mxCell>
        <mxCell id="EWGCf1BaDTlb1IVFwAW_-17" value="&lt;span style=&quot;font-size: 16px;&quot;&gt;author 9&lt;/span&gt;" style="ellipse;whiteSpace=wrap;html=1;aspect=fixed;" vertex="1" parent="1">
          <mxGeometry x="-631" y="28" width="80" height="80" as="geometry" />
        </mxCell>
        <mxCell id="EWGCf1BaDTlb1IVFwAW_-18" style="edgeStyle=none;curved=1;rounded=0;orthogonalLoop=1;jettySize=auto;html=1;exitX=0.5;exitY=1;exitDx=0;exitDy=0;entryX=0.5;entryY=0;entryDx=0;entryDy=0;fontSize=12;startSize=8;endSize=8;" edge="1" parent="1" source="EWGCf1BaDTlb1IVFwAW_-19" target="EWGCf1BaDTlb1IVFwAW_-31">
          <mxGeometry relative="1" as="geometry" />
        </mxCell>
        <mxCell id="EWGCf1BaDTlb1IVFwAW_-19" value="&lt;span style=&quot;font-size: 16px;&quot;&gt;author 7&lt;/span&gt;" style="ellipse;whiteSpace=wrap;html=1;aspect=fixed;" vertex="1" parent="1">
          <mxGeometry x="-467" y="268" width="80" height="80" as="geometry" />
        </mxCell>
        <mxCell id="EWGCf1BaDTlb1IVFwAW_-20" style="edgeStyle=none;curved=1;rounded=0;orthogonalLoop=1;jettySize=auto;html=1;exitX=0.5;exitY=1;exitDx=0;exitDy=0;entryX=0.5;entryY=0;entryDx=0;entryDy=0;fontSize=12;startSize=8;endSize=8;" edge="1" parent="1" source="EWGCf1BaDTlb1IVFwAW_-21" target="EWGCf1BaDTlb1IVFwAW_-28">
          <mxGeometry relative="1" as="geometry" />
        </mxCell>
        <mxCell id="EWGCf1BaDTlb1IVFwAW_-21" value="&lt;span style=&quot;font-size: 16px;&quot;&gt;author 10&lt;/span&gt;" style="ellipse;whiteSpace=wrap;html=1;aspect=fixed;" vertex="1" parent="1">
          <mxGeometry x="-751" y="28" width="80" height="80" as="geometry" />
        </mxCell>
        <mxCell id="EWGCf1BaDTlb1IVFwAW_-22" value="&lt;span style=&quot;font-size: 16px;&quot;&gt;song 9&lt;/span&gt;" style="whiteSpace=wrap;html=1;aspect=fixed;" vertex="1" parent="1">
          <mxGeometry x="-414" y="161" width="80" height="80" as="geometry" />
        </mxCell>
        <mxCell id="EWGCf1BaDTlb1IVFwAW_-23" value="&lt;font style=&quot;font-size: 16px;&quot;&gt;song 1&lt;/font&gt;" style="whiteSpace=wrap;html=1;aspect=fixed;" vertex="1" parent="1">
          <mxGeometry x="-749" y="386" width="80" height="80" as="geometry" />
        </mxCell>
        <mxCell id="EWGCf1BaDTlb1IVFwAW_-24" value="&lt;span style=&quot;font-size: 16px;&quot;&gt;song 7&lt;/span&gt;" style="whiteSpace=wrap;html=1;aspect=fixed;" vertex="1" parent="1">
          <mxGeometry x="-643" y="390" width="80" height="80" as="geometry" />
        </mxCell>
        <mxCell id="EWGCf1BaDTlb1IVFwAW_-25" value="&lt;span style=&quot;font-size: 16px;&quot;&gt;song 2&lt;/span&gt;" style="whiteSpace=wrap;html=1;aspect=fixed;" vertex="1" parent="1">
          <mxGeometry x="-304" y="161" width="80" height="80" as="geometry" />
        </mxCell>
        <mxCell id="EWGCf1BaDTlb1IVFwAW_-26" value="&lt;span style=&quot;font-size: 16px;&quot;&gt;song 3&lt;/span&gt;" style="whiteSpace=wrap;html=1;aspect=fixed;" vertex="1" parent="1">
          <mxGeometry x="-516" y="161" width="80" height="80" as="geometry" />
        </mxCell>
        <mxCell id="EWGCf1BaDTlb1IVFwAW_-27" value="&lt;span style=&quot;font-size: 16px;&quot;&gt;song 8&lt;/span&gt;" style="whiteSpace=wrap;html=1;aspect=fixed;" vertex="1" parent="1">
          <mxGeometry x="-633" y="161" width="80" height="80" as="geometry" />
        </mxCell>
        <mxCell id="EWGCf1BaDTlb1IVFwAW_-28" value="&lt;span style=&quot;font-size: 16px;&quot;&gt;song 10&lt;/span&gt;" style="whiteSpace=wrap;html=1;aspect=fixed;" vertex="1" parent="1">
          <mxGeometry x="-751" y="161" width="80" height="80" as="geometry" />
        </mxCell>
        <mxCell id="EWGCf1BaDTlb1IVFwAW_-29" value="&lt;span style=&quot;font-size: 16px;&quot;&gt;song 4&lt;/span&gt;" style="whiteSpace=wrap;html=1;aspect=fixed;" vertex="1" parent="1">
          <mxGeometry x="-243" y="375" width="80" height="80" as="geometry" />
        </mxCell>
        <mxCell id="EWGCf1BaDTlb1IVFwAW_-30" value="&lt;span style=&quot;font-size: 16px;&quot;&gt;song 5&lt;/span&gt;" style="whiteSpace=wrap;html=1;aspect=fixed;" vertex="1" parent="1">
          <mxGeometry x="-354" y="379" width="80" height="80" as="geometry" />
        </mxCell>
        <mxCell id="EWGCf1BaDTlb1IVFwAW_-31" value="&lt;span style=&quot;font-size: 16px;&quot;&gt;song 2&lt;/span&gt;" style="whiteSpace=wrap;html=1;aspect=fixed;" vertex="1" parent="1">
          <mxGeometry x="-522" y="390" width="80" height="80" as="geometry" />
        </mxCell>
      </root>
    </mxGraphModel>
  </diagram>
</mxfile>
